<?xml version="1.0" encoding="UTF-8" standalone="no"?>

<svg
   xmlns:dc="http://purl.org/dc/elements/1.1/"
   xmlns:cc="http://creativecommons.org/ns#"
   xmlns:rdf="http://www.w3.org/1999/02/22-rdf-syntax-ns#"
   xmlns:svg="http://www.w3.org/2000/svg"
   xmlns="http://www.w3.org/2000/svg"
   xmlns:sodipodi="http://sodipodi.sourceforge.net/DTD/sodipodi-0.dtd"
   width="1024"
   height="1024"
   id="svg2"
   version="1.1"
   sodipodi:docname="logo.svg">
  <defs
     id="defs4" />
  <sodipodi:namedview
     id="base"
     pagecolor="#ffffff"
     bordercolor="#666666"
     borderopacity="1.0"
     showgrid="false"
     showguides="true" />
  <metadata
     id="metadata7">
    <rdf:RDF>
      <cc:Work
         rdf:about="">
        <dc:format>image/svg+xml</dc:format>
        <dc:type
           rdf:resource="http://purl.org/dc/dcmitype/StillImage" />
        <dc:title></dc:title>
      </cc:Work>
    </rdf:RDF>
  </metadata>
  <g
     id="layer1"
     transform="translate(0,-28.362183)">
    <path
       sodipodi:type="arc"
       style="fill:none;stroke:#4d4d4d;stroke-width:50;stroke-linecap:butt;stroke-linejoin:miter;stroke-opacity:1;stroke-miterlimit:4;stroke-dasharray:none"
       id="path2985"
       sodipodi:cx="555.71429"
       sodipodi:cy="619.71429"
       sodipodi:rx="452.85715"
       sodipodi:ry="452.85715"
       d="m 1008.5714,619.71429 c 0,250.1061 -202.75101,452.85711 -452.85711,452.85711 -250.10609,0 -452.85714,-202.75101 -452.85714,-452.85711 0,-250.10609 202.75105,-452.85714 452.85714,-452.85714 250.1061,0 452.85711,202.75105 452.85711,452.85714 z"
       transform="translate(-37.142857,-68.780674)" />
    <path
       style="fill:none;stroke:#4d4d4d;stroke-width:50;stroke-linecap:butt;stroke-linejoin:miter;stroke-miterlimit:4;stroke-opacity:1;stroke-dasharray:none"
       d="m 612.74384,239.00443 c -119.65716,43.65731 -239.31431,87.31463 -358.97147,130.97193 3.96002,127.23477 7.92004,254.46953 11.88006,381.7043 122.27738,34.95022 244.55471,69.90047 366.8321,104.8507 C 703.82895,750.75891 775.17336,644.98646 846.51779,539.21398 768.59314,439.14414 690.66848,339.07429 612.74384,239.00443 z"
       id="path3755-1-4" />
  </g>
</svg>
